<svg height="512" viewBox="0 0 512 512" width="512" xmlns="http://www.w3.org/2000/svg"><g id="Flat"><path d="m136 432h240v64h-240z" fill="#03999c"/><path d="m268.00391 460h-24.00391a4 4 0 0 1 0-8h24.00391a4 4 0 0 1 0 8z" fill="#2b504d"/><path d="m371.92969 492h-231.92969a4 4 0 0 1 0-8h231.92969a4 4 0 0 1 0 8z" fill="#2b504d"/><path d="m176 496a4.0002 4.0002 0 0 1 -4-4v-4.063a4 4 0 0 1 8 0v4.063a4.0002 4.0002 0 0 1 -4 4z" fill="#0c6c71"/><path d="m208 496a4.0002 4.0002 0 0 1 -4-4v-15.35986a4 4 0 0 1 8 0v15.35986a4.0002 4.0002 0 0 1 -4 4z" fill="#0c6c71"/><path d="m240 496a4.0002 4.0002 0 0 1 -4-4v-32a4 4 0 0 1 8 0v32a4.0002 4.0002 0 0 1 -4 4z" fill="#0c6c71"/><path d="m272 496a4.0002 4.0002 0 0 1 -4-4v-32a4 4 0 0 1 8 0v32a4.0002 4.0002 0 0 1 -4 4z" fill="#0c6c71"/><path d="m304 496a4.0002 4.0002 0 0 1 -4-4v-15.35986a4 4 0 0 1 8 0v15.35986a4.0002 4.0002 0 0 1 -4 4z" fill="#0c6c71"/><path d="m336 496a4.0002 4.0002 0 0 1 -4-4v-4.063a4 4 0 0 1 8 0v4.063a4.0002 4.0002 0 0 1 -4 4z" fill="#0c6c71"/><circle cx="144" cy="492" fill="#0c6c71" r="4"/><circle cx="368" cy="492" fill="#0c6c71" r="4"/><path d="m384 488c-51.19995 6.4-107.52-28.16-128-42.24-20.48 14.08-76.8 48.64-128 42.24-64-8-56-88 0-128.43 44.02-31.79 78.15991-36.3 90.74-45.93 3.42993-2.61 5.26-5.61 5.26-9.64 0-8.34-3.81006-14.51-9.43994-20.07-6.53-6.44-15.52-12.06-23.86011-19.29-12.03003-10.42-22.69995-24.19-22.69995-48.64 0-80-16-152 88-152s88 72 88 152c0 24.48-10.7 38.26-22.75 48.68-8.32007 7.21-17.29 12.82-23.81006 19.25-5.62988 5.56-9.43994 11.73-9.43994 20.07 0 4.03 1.83008 7.03 5.26 9.64 12.58008 9.63 46.72 14.14 90.74 45.93 56 40.43 64 120.43 0 128.43z" fill="#f5a971"/><path d="m384 488c-51.19995 6.4-107.52-28.16-128-42.24-20.48 14.08-76.8 48.64-128 42.24-64-8-56-88 0-128.43 27.48-19.85 51.10986-29.06 68.05005-35.52 10.18994-3.89 17.96-6.79 22.68994-10.41l37.26001 22.36 37.26-22.36c4.73 3.62 12.5 6.52 22.68994 10.41 16.9402 6.46 40.57006 15.67 68.05006 35.52 56 40.43 64 120.43 0 128.43z" fill="#03999c"/><path d="m256 212h-4a16 16 0 0 1 0-32h4a4 4 0 0 1 0 8h-4a8 8 0 0 0 0 16h4a4 4 0 0 1 0 8z" fill="#e37066"/><path d="m371.92993 488.78c-47.71.34-97.05-30.04-115.92993-43.02l-64.03-52.59c9.51-3.76 19.21-6.99 27.80005-9.6 60.72995 11.6 148.22995 32.43 148.22995 32.43z" fill="#03999c"/><path d="m264 440s-63.33008 49.26-124 48.78l12-72.78c24-24 96-40 96-40v32c0 8.61 4.62988 17.22 8.90991 23.33a71.09257 71.09257 0 0 0 7.09009 8.67z" fill="#03999c"/><path d="m168 192v-40a40 40 0 0 1 40-40h96a40 40 0 0 1 40 40v32l24 .97055s16-56.97055 16-96.97055-24-64-24-64-20.777 16-48 16c-42.42583 0-84.50754-16-104-16-32 0-48 24-48 40-24 0-32 24-32 48s16 56 16 56l2.16667 4.66667z" fill="#795033"/><path d="m256 255.314a15.21046 15.21046 0 0 1 -10.82812-4.48584 3.99957 3.99957 0 1 1 5.65624-5.65624 7.31458 7.31458 0 0 0 10.34376 0 3.99957 3.99957 0 1 1 5.65624 5.65624 15.21046 15.21046 0 0 1 -10.82812 4.48584z" fill="#e37066"/><path d="m322.038 264a8.974 8.974 0 0 0 -3.58724.72385 28.83535 28.83535 0 0 1 -11.51082 2.49615 25.11661 25.11661 0 0 1 -2.74263-.14874 13.817 13.817 0 0 1 -12.21031-14.27626q.0082-.25116.01121-.50351c.16046-13.45572-11.08621-24.29149-24.54288-24.29149h-22.83874c-13.51692 0-24.84241 10.90245-24.613 24.41742q.00267.15737.00735.31422a13.786 13.786 0 0 1 -11.76359 14.28636 27.86706 27.86706 0 0 1 -14.67528-2.28277 9.04214 9.04214 0 0 0 -3.61207-.73523c2.64014 2.33 5.36011 4.49 8.05 6.56a121.95945 121.95945 0 0 0 38.30005 19.43c4.84985 1.51 10.51 4.83 19.68994 14.01 9.17993-9.18 14.84009-12.5 19.68994-14.01a121.95945 121.95945 0 0 0 38.30007-19.43c2.68994-2.07 5.40991-4.23 8.05-6.56zm-54.038 4h-24a16 16 0 0 1 0-32h24a16 16 0 0 1 0 32z" fill="#795033"/><path d="m176 84a4.0002 4.0002 0 0 1 -4-4c0-9.97852 5.249-18.97363 14.78125-25.32812 10.62207-7.08155 25.83594-10.67188 45.21875-10.67188a4 4 0 0 1 0 8c-23.98828 0-52 7.333-52 28a4.0002 4.0002 0 0 1 -4 4z" fill="#a87c50"/><path d="m184.001 96.78564a4.00261 4.00261 0 0 1 -3.7959-5.26611c3.36035-10.0791 9.7334-17.311 18.43262-20.91455 10.25585-4.24756 23.3955-3.27539 35.15136 2.60205a4 4 0 1 1 -3.57812 7.15527c-7.4961-3.74853-18.92383-6.33789-28.51172-2.36621-6.585 2.72754-11.2627 8.12891-13.9043 16.05371a4.00228 4.00228 0 0 1 -3.79394 2.73584z" fill="#a87c50"/><path d="m144 107.98828h-.02246a3.99041 3.99041 0 0 1 -3.97754-3.98828c0-6.91748 4.17969-20 20-20a4 4 0 0 1 0 8c-4.97852 0-8.35352 1.82715-10.31836 5.58594a16.05587 16.05587 0 0 0 -1.68164 6.43606 4.01052 4.01052 0 0 1 -4 3.96628z" fill="#a87c50"/><path d="m160 124a3.98686 3.98686 0 0 1 -2.82812-1.17139c-4.749-4.749-5.81348-12.25146-2.77735-19.58007 2.83008-6.83301 8.1709-11.24854 13.60547-11.24854a4 4 0 0 1 0 8c-1.77051 0-4.57812 2.36035-6.21484 6.31006-1.38965 3.35644-1.84571 7.97217 1.043 10.86133a4 4 0 0 1 -2.82816 6.82861z" fill="#a87c50"/><path d="m188.84654 161.17384 5.664-5.673a8 8 0 0 1 8.18878-1.938l18.37171 6.11738a4.26913 4.26913 0 0 1 1.67487 1.03661 4.2692 4.2692 0 0 1 -3.02366 7.28317h-28.045a4 4 0 0 1 -2.8307-6.82616z" fill="#795033"/><path d="m323.15346 161.17384-5.66395-5.673a8 8 0 0 0 -8.18878-1.938l-18.37173 6.1174a4.26913 4.26913 0 0 0 -1.67487 1.03661 4.2692 4.2692 0 0 0 3.02363 7.28315h28.045a4 4 0 0 0 2.8307-6.82616z" fill="#795033"/><circle cx="208" cy="184" fill="#084c4f" r="8"/><circle cx="304" cy="184" fill="#084c4f" r="8"/><path d="m377.6875 364h-243.375a4 4 0 0 1 0-8h243.375a4 4 0 0 1 0 8z" fill="#2b504d"/><path d="m409.71875 396h-307.44792a4 4 0 1 1 0-8h307.44792a4 4 0 0 1 0 8z" fill="#2b504d"/><path d="m423.543 428h-334.9979a4 4 0 0 1 0-8h334.9979a4 4 0 0 1 0 8z" fill="#2b504d"/><path d="m422.20784 460h-146.20784a4 4 0 0 1 0-8h146.20784a4 4 0 1 1 0 8z" fill="#2b504d"/><path d="m236.02832 460h-146.23144a4 4 0 1 1 0-8h146.23144a4 4 0 0 1 0 8z" fill="#2b504d"/><g fill="#0c6c71"><path d="m112 483.64706a4.0002 4.0002 0 0 1 -4-4v-100.29289a4 4 0 0 1 8 0v100.29289a4.0002 4.0002 0 0 1 -4 4z"/><path d="m144 486.5a4.0002 4.0002 0 0 1 -4-4v-128.90625a4 4 0 0 1 8 0v128.90625a4.0002 4.0002 0 0 1 -4 4z"/><path d="m176 479.77539a4.0002 4.0002 0 0 1 -4-4v-139.246a4 4 0 0 1 8 0v139.246a4.0002 4.0002 0 0 1 -4 4z"/><path d="m208 468.20166a4.0002 4.0002 0 0 1 -4-4v-140.51438a4 4 0 0 1 8 0v140.51438a4.0002 4.0002 0 0 1 -4 4z"/><path d="m304 472a4.0002 4.0002 0 0 1 -4-4v-144.30588a4 4 0 0 1 8 0v144.30588a4.0002 4.0002 0 0 1 -4 4z"/><path d="m336 483.937a4.0002 4.0002 0 0 1 -4-4v-143.40661a4 4 0 0 1 8 0v143.40661a4.0002 4.0002 0 0 1 -4 4z"/><path d="m368 488a4.0002 4.0002 0 0 1 -4-4v-130.41176a4 4 0 0 1 8 0v130.41176a4.0002 4.0002 0 0 1 -4 4z"/><path d="m400 483.64706a4.0002 4.0002 0 0 1 -4-4v-100.29412a4 4 0 0 1 8 0v100.29412a4.0002 4.0002 0 0 1 -4 4z"/><path d="m240 456a4.0002 4.0002 0 0 1 -4-4v-120.9375a4 4 0 0 1 8 0v120.9375a4.0002 4.0002 0 0 1 -4 4z"/><path d="m272 456a4.0002 4.0002 0 0 1 -4-4v-120.9375a4 4 0 0 1 8 0v120.9375a4.0002 4.0002 0 0 1 -4 4z"/></g><path d="m219.77 383.57c-8.59009 2.61-18.29 5.84-27.8 9.6-.17993 3.84-1.28 16.14-7.97 22.83-8 8-8 16-16 16-3.33008 0-5.27-2.76-5.25-6.57-4.15991 1.47-7.05.59-8.39014-1.7a9.8812 9.8812 0 0 1 -2.35986.27 7.87526 7.87526 0 0 1 -6.72-4.57c-2.72.44-6-.15-9.28-3.43-8-8 0-40 32-40 8.90991 0 28.3501 3.1 51.77 7.57z" fill="#f5a971"/><path d="m179.57812 406.21094a4.00121 4.00121 0 0 0 -5.36718-1.78858c-8.97754 4.48877-13.84595 11.43079-15.11768 17.72535-.59277.016-1.1206-.102-1.32471-.511-1.10156-2.21094.916-10.61914 12.4502-18.3086a3.9999 3.9999 0 0 0 -4.4375-6.65624c-10.45947 6.9729-15.50732 15.39477-16.17578 22.043a6.10447 6.10447 0 0 1 -1.2666-2.31445c-1.43946-4.75439 1.45117-12.78662 13.87988-21.07227a3.9999 3.9999 0 0 0 -4.4375-6.65624c-5.11328 3.40869-21.458 15.6499-17.09863 30.04687 1.68066 5.55122 6.22851 9.28122 11.31738 9.28122.25293 0 .49316-.02991.74121-.04205a9.31176 9.31176 0 0 0 6.24512 2.20025c.19092 0 .39331-.01843.59033-.02783a8.791 8.791 0 0 0 8.42334 5.86963 4 4 0 0 0 0-8c-.32812 0-.82324 0-1.12012-1.25781-.85058-3.60645 1.97071-10.69531 10.90918-15.16455a4.001 4.001 0 0 0 1.78906-5.3667z" fill="#e37066"/><path d="m368.00293 420.001a4.00776 4.00776 0 0 1 -.92969-.10987c-.127-.03027-13.00293-3.09375-31.96875-7.45068a4 4 0 0 1 1.791-7.79688c18.999 4.36475 31.90234 7.43457 32.03125 7.46534a4.0005 4.0005 0 0 1 -.92383 7.89209z" fill="#084c4f"/><path d="m336 408h-24c-21.60986 0-49.71 19.46-55.09009 23.33-4.28003-6.11-8.90991-14.72-8.90991-23.33v-32c12.72-6.36 35.54-12.72 48.37988-7.02a15.68641 15.68641 0 0 1 5.42017 3.81 10.96909 10.96909 0 0 1 10.04 9.29c5.3999 1.94 9.86987 6.11 9.76 11.9 10.50981 2.86 14.39995 8.44 14.39995 14.02z" fill="#f5a971"/><path d="m325.31152 390.906c-1.0039-4.95942-4.59423-9.186-10.08593-11.74451a14.67586 14.67586 0 0 0 -7.3125-8.67615c-4.02051-2.05664-11.04786-3.39014-21.70215 1.937a4 4 0 1 0 3.57812 7.15528c5.0354-2.51734 9.4646-3.38849 12.74732-2.58136a15.67778 15.67778 0 0 0 -9.3645 4.17511 3.99991 3.99991 0 0 0 5.65624 5.65722c2.34766-2.34765 7.84473-2.63379 12.51661-.65088a13.43483 13.43483 0 0 1 3.89843 2.48676 88.27493 88.27493 0 0 0 -11.24316-.66447 4 4 0 0 0 0 8 65.25807 65.25807 0 0 1 16.0918 1.67236 3.96863 3.96863 0 0 0 .90527.24292c9.97022 2.84809 11.00293 8.08026 11.00293 10.08472a4 4 0 0 0 8 0c0-4.29822-1.79932-12.66809-14.68848-17.094z" fill="#e37066"/><path d="m219.77832 387.57324a3.98954 3.98954 0 0 0 1.16211-.17334c15.67773-4.75635 27.80664-7.46826 27.92773-7.49511a4.00014 4.00014 0 0 0 -1.73632-7.80958c-.12305.02735-12.52832 2.79883-28.51368 7.64942a4.00045 4.00045 0 0 0 1.16016 7.82861z" fill="#084c4f"/><path d="m371.89648 484.7793q-.39111.00293-.7832.00293c-42.72656 0-86.91211-25.18805-108.053-39.09833 2.04737-1.48334 3.22608-2.39459 3.39575-2.52667a4.00363 4.00363 0 0 0 .375-5.98291 68.088 68.088 0 0 1 -6.64257-8.1333 4.00012 4.00012 0 1 0 -6.55469 4.58691c1.60547 2.29443 3.16309 4.25537 4.44141 5.77051-13.85059 9.93408-66.81348 45.38379-117.19825 45.38379-.27929 0-.5664-.001-.8457-.00342h-.03223a4.00006 4.00006 0 0 0 -.03027 8c.2832.00195.56836.00342.8584.00342 17.83691 0 46.96777-4.3584 85.77734-24.669a313.27933 313.27933 0 0 0 29.40334-17.51223c20.60889 13.87525 68.39014 42.18122 115.11328 42.18122.27637 0 .55664-.001.834-.00293a4.00021 4.00021 0 0 0 3.9707-4.02881 4.0405 4.0405 0 0 0 -4.02931-3.97118z" fill="#084c4f"/><path d="m315.95 324.05-35.95 35.95-24-16-24 16-35.94995-35.95c10.18994-3.89 17.96-6.79 22.68994-10.41l37.26001 22.36 37.26-22.36c4.73 3.62 12.5 6.52 22.69 10.41z" fill="#084c4f"/><path d="m344 176 3.02944-3.02944a16.97054 16.97054 0 0 1 12-4.97056 16.97054 16.97054 0 0 1 16.97056 16.97055v3.53983a16.97055 16.97055 0 0 1 -10.66784 15.75676l-26.55346 10.624z" fill="#f5a971"/><path d="m173.2213 214.89113-26.55346-10.624a16.97055 16.97055 0 0 1 -10.66784-15.75675v-3.53983a16.97054 16.97054 0 0 1 16.97055-16.97055 16.97054 16.97054 0 0 1 12 4.97056l3.02945 3.02944z" fill="#f5a971"/></g></svg>