<svg height="512" viewBox="0 0 512 512" width="512" xmlns="http://www.w3.org/2000/svg"><g id="Flat"><path d="m344 64c40 0 40 41.94109 40 120.97055 0 95.02945-96 79.02945-96 119.02945h-44v-240z" fill="#795033"/><path d="m440 496h-368c0-133.75 80.31006-153.37012 124.17993-169.47 10.39014-3.81006 18.74-7.44019 23.48-12.33008a14.10563 14.10563 0 0 0 4.34007-10.19992c0-32-56-32-56-88v-72c0-48 19.71-80 96-80 112 0 88 80 88 112l3.03-3.03a16.97 16.97 0 0 1 28.97 12v3.54a16.96876 16.96876 0 0 1 -10.66992 15.76l-26.55 10.62012c-15.27008 50.33988-58.78008 57.10988-58.78008 89.10988a14.10563 14.10563 0 0 0 4.34009 10.2c4.74 4.88989 13.08984 8.52 23.48 12.33008 43.86985 16.0998 124.17991 35.71992 124.17991 169.46992z" fill="#f5a971"/><path d="m440 496h-368c0-126.02 71.30005-150.72 116.23-166.62012 2.76-.98 5.41-1.91992 7.95-2.84985 10.39014-3.81006 18.74-7.44019 23.48-12.33008l36.34 21.80005 36.34009-21.8c4.74 4.88989 13.08984 8.52 23.48 12.33008 2.53992.92993 5.18994 1.86987 7.95 2.84985 44.92991 15.90007 116.22991 40.60007 116.22991 166.62007z" fill="#f3b73f"/><path d="m182.81524 161.17384 5.664-5.673a8 8 0 0 1 8.18877-1.938l18.37171 6.11738a4.26906 4.26906 0 0 1 1.67487 1.03661 4.2692 4.2692 0 0 1 -3.02359 7.28317h-28.045a4 4 0 0 1 -2.83076-6.82616z" fill="#795033"/><path d="m297.18476 161.17384-5.664-5.673a8 8 0 0 0 -8.18877-1.938l-18.37171 6.11738a4.26906 4.26906 0 0 0 -1.67487 1.03661 4.2692 4.2692 0 0 0 3.02364 7.28317h28.045a4 4 0 0 0 2.83071-6.82616z" fill="#795033"/><circle cx="280" cy="184" fill="#795033" r="8"/><circle cx="200" cy="184" fill="#795033" r="8"/><path d="m240 220h-4a16 16 0 0 1 0-32h4a4 4 0 0 1 0 8h-4a8 8 0 0 0 0 16h4a4 4 0 0 1 0 8z" fill="#e37066"/><path d="m219.65991 314.2 36.34009 21.8-24 24-43.77-30.62012c2.76-.98 5.41-1.91992 7.95-2.84985 10.39007-3.81003 18.73992-7.44019 23.47991-12.33003z" fill="#b1cdb4"/><path d="m323.77 329.37988-43.77 30.62012-24-24 36.34009-21.8c4.74 4.88989 13.08984 8.52 23.48 12.33008 2.53991.92992 5.18991 1.86982 7.94991 2.8498z" fill="#b1cdb4"/><path d="m312 120c16 16 16 40 16 56s24 16 24 0l21.5-44-29.5-68h-100z" fill="#795033"/><path d="m240 352 8 16h16l8-16-16-16z" fill="#ea5003"/><path d="m270.4 387.2-14.4 12.8-14.4-12.8 3.73-11.2 2.67-8h16l2.67 8z" fill="#ea5003"/><path d="m266.67 376h-21.34l2.67-8h16z" fill="#ba5457"/><path d="m312 120c0-32 32-56 32-56s-24-40-88-40-120 24-120 56 24 56 96 56c64 0 80-16 80-16z" fill="#795033"/><path d="m296.00293 92.001a3.99989 3.99989 0 0 1 -3.58057-2.21192c-.27978-.53908-7.38525-13.78908-28.42236-13.78908a4 4 0 0 1 0-8c26.17139 0 35.20605 17.46777 35.57764 18.21094a4.00106 4.00106 0 0 1 -3.57471 5.79z" fill="#a87c50"/><path d="m304.00293 68.001a3.99989 3.99989 0 0 1 -3.58057-2.21192c-.27978-.53908-7.38525-13.78908-28.42236-13.78908a4 4 0 0 1 0-8c26.17139 0 35.20605 17.46777 35.57764 18.21094a4.00106 4.00106 0 0 1 -3.57471 5.79z" fill="#a87c50"/><path d="m343.979 132c-.063 0-.126-.001-.18945-.00391a4.0006 4.0006 0 0 1 -3.80908-4.18261c.189-4.24317-.51514-17.10157-6.041-20.3711a3.99973 3.99973 0 1 1 4.07325-6.88476c10.63916 6.293 10.06 25.46386 9.959 27.6289a3.99991 3.99991 0 0 1 -3.99272 3.81348z" fill="#a87c50"/><path d="m360.00293 116c-.063 0-.126-.001-.18945-.00391a4.00061 4.00061 0 0 1 -3.80909-4.18261c.189-4.24317-.51513-17.10157-6.041-20.3711a3.99973 3.99973 0 1 1 4.07324-6.88476c10.63916 6.293 10.06006 25.46386 9.959 27.6289a3.99992 3.99992 0 0 1 -3.9927 3.81348z" fill="#a87c50"/><path d="m247.93945 249.252c-7.58349 0-14.6914-2.34668-18.76806-6.42383a3.99991 3.99991 0 0 1 5.65722-5.65624c3.28223 3.28124 10.7295 4.84472 17.707 3.71093 4.28858-.69629 12.05469-3.00781 15.88672-10.67187a4 4 0 1 1 7.15528 3.57812c-3.96289 7.92578-11.894 13.38965-21.76026 14.99024a36.76546 36.76546 0 0 1 -5.8779.47265z" fill="#e37066"/><g fill="#f57a08"><path d="m256 425.40723a3.98873 3.98873 0 0 1 -2.65723-1.01075l-56-49.77734 5.31446-5.97852 53.34277 47.41504 53.34277-47.415 5.31446 5.97852-56 49.77734a3.98873 3.98873 0 0 1 -2.65723 1.01071z"/><path d="m256 404a3.98872 3.98872 0 0 1 -2.65723-1.01074l-72-64 5.31446-5.97852 69.34277 61.6377 69.34277-61.6377 5.31446 5.97852-72 64a3.98872 3.98872 0 0 1 -2.65723 1.01074z"/><path d="m240 428a3.98727 3.98727 0 0 1 -2.82861-1.17188l-8-8a3.99991 3.99991 0 0 1 5.65722-5.65624l8 8a4 4 0 0 1 -2.82861 6.82812z"/><path d="m240 444a3.98727 3.98727 0 0 1 -2.82861-1.17188l-8-8a3.99991 3.99991 0 0 1 5.65722-5.65624l8 8a4 4 0 0 1 -2.82861 6.82812z"/><path d="m240 460a3.98727 3.98727 0 0 1 -2.82861-1.17188l-8-8a3.99991 3.99991 0 0 1 5.65722-5.65624l8 8a4 4 0 0 1 -2.82861 6.82812z"/><path d="m240 476a3.98727 3.98727 0 0 1 -2.82861-1.17188l-8-8a3.99991 3.99991 0 0 1 5.65722-5.65624l8 8a4 4 0 0 1 -2.82861 6.82812z"/><path d="m240 492a3.98727 3.98727 0 0 1 -2.82861-1.17188l-8-8a3.99991 3.99991 0 0 1 5.65722-5.65624l8 8a4 4 0 0 1 -2.82861 6.82812z"/><path d="m272 428a4 4 0 0 1 -2.82861-6.82812l8-8a3.99991 3.99991 0 0 1 5.65722 5.65624l-8 8a3.98727 3.98727 0 0 1 -2.82861 1.17188z"/><path d="m272 444a4 4 0 0 1 -2.82861-6.82812l8-8a3.99991 3.99991 0 0 1 5.65722 5.65624l-8 8a3.98727 3.98727 0 0 1 -2.82861 1.17188z"/><path d="m272 460a4 4 0 0 1 -2.82861-6.82812l8-8a3.99991 3.99991 0 0 1 5.65722 5.65624l-8 8a3.98727 3.98727 0 0 1 -2.82861 1.17188z"/><path d="m272 476a4 4 0 0 1 -2.82861-6.82812l8-8a3.99991 3.99991 0 0 1 5.65722 5.65624l-8 8a3.98727 3.98727 0 0 1 -2.82861 1.17188z"/><path d="m272 492a4 4 0 0 1 -2.82861-6.82812l8-8a3.99991 3.99991 0 0 1 5.65722 5.65624l-8 8a3.98727 3.98727 0 0 1 -2.82861 1.17188z"/></g><path d="m440 496h-152c0-5.47.15-11.06006.42993-16.72 2.87012-58.3 19.48-124.15991 27.39014-152.75 10.29993 3.78 22.60986 7.75 35.40991 13.34009 41.74002 18.25979 88.77002 53.77981 88.77002 156.12991z" fill="#03999c"/><path d="m224 496h-152c0-102.3501 47.03-137.87012 88.77-156.12988 12.8-5.59009 25.11-9.56006 35.40991-13.34009 7.91016 28.59009 24.52 94.45 27.39014 152.75.27995 5.65991.42995 11.24997.42995 16.71997z" fill="#03999c"/><path d="m156 400v96h-8v-96a4 4 0 0 1 8 0z" fill="#0c6c71"/><path d="m364 400v96h-8v-96a4 4 0 0 1 8 0z" fill="#0c6c71"/><path d="m136 464-64 32-23.66992-132.3a19.35221 19.35221 0 0 1 -.33008-3.7c0-16 16-16 16-16h56c8 72 16 120 16 120z" fill="#03999c"/><path d="m120 344c0 24-24 32-40 32s-32 0-32-16 16-16 16-16z" fill="#0c6c71"/><path d="m120 344c0 24-24 32-40 32a122.60044 122.60044 0 0 1 -16-.66992v-23.33008s23.62 23.62012 55.25-15.07007c.23 2.29007.48 4.64014.75 7.07007z" fill="#f5a971"/><path d="m135.99512 468.001a4.00153 4.00153 0 0 1 -3.94092-3.34375c-.06592-.39649-6.70166-40.416-13.8374-101.05078a4.0001 4.0001 0 0 1 7.94531-.93555c7.11328 60.44726 13.71777 100.27637 13.78369 100.67187a4.007 4.007 0 0 1 -3.95068 4.65821z" fill="#0c6c71"/><path d="m119.25 336.92993c-31.63 38.69019-55.25 15.07007-55.25 15.07007s-16-32-8-56 20.4-27.87012 32-28c2.89 0 5.56006.08984 7.99.28 0-6.72.01-14.1001.01-20.28 0-24 24-24 24 0 0 15.46-7.47 23.45-.75 88.92993z" fill="#f5a971"/><path d="m100.17993 328.5c-5.02 5.3501-10.54993 8.12988-16 8.12988a16.09045 16.09045 0 0 1 -5.10986-.83984 4.00031 4.00031 0 0 1 2.52993-7.59004 8.79681 8.79681 0 0 0 6.49011-.46c.00989 0 .0199-.01.02991-.02a2.61348 2.61348 0 0 0 1.52998-2.44 2.72966 2.72966 0 0 0 -1.69006-2.48 44.43407 44.43407 0 0 0 -15.63987-2.8 4 4 0 0 1 .01-8h.01993a51.60832 51.60832 0 0 1 18.56994 3.37988 10.56615 10.56615 0 0 1 5.58006 5.12012c.5-.6499.99-1.32007 1.46-2.02a6.06592 6.06592 0 0 0 -1.1-8.1499 27.839 27.839 0 0 0 -16.57-6.3301 4.0001 4.0001 0 0 1 .04-8h.05a35.70571 35.70571 0 0 1 21.59 8.16992 13.57059 13.57059 0 0 1 2.11011 2.18018c.48-1.31006.90991-2.64014 1.28992-3.98a7.566 7.566 0 0 0 -2.41-7.84009 27.00522 27.00522 0 0 0 -16.54-6.53 4.0001 4.0001 0 0 1 .04-8h.04a35.15295 35.15295 0 0 1 20.96 7.87012 24.36981 24.36981 0 0 0 -1.53-8.58008c-1.81994-4.49-5.13989-6.78-10.11987-7.01a4.004 4.004 0 1 1 .35986-8c8.08008.37988 14.18006 4.63989 17.17017 12 6.19981 15.24995-1.84019 40.14988-13.16026 52.21995z" fill="#e37066"/><path d="m312.169 120.01367c-.10987 0-.22071-.0039-.332-.01367a3.99953 3.99953 0 0 1 -3.65869-4.31445c2.07813-25.2793 21.75782-44.90723 30.12207-52.17188a3.99974 3.99974 0 1 1 5.2461 6.03906c-7.625 6.62305-25.55762 24.44043-27.39551 46.78907a3.99973 3.99973 0 0 1 -3.98197 3.67187z" fill="#a87c50"/><path d="m219.12443 471.87129a3.99979 3.99979 0 0 1 -5.48736-1.372l-41.06725-68.44168a4.00013 4.00013 0 0 1 .10206-4.27637l11.854-17.78124h-16.52637a3.99963 3.99963 0 0 1 -3.92187-3.21484l-5.61856-28.07823a3.99979 3.99979 0 0 1 3.137-4.7068l.00068-.00013a3.99978 3.99978 0 0 1 4.70712 3.13721l4.97493 24.86279h20.5973a4.12479 4.12479 0 0 1 2.84163 1.05815 4.01014 4.01014 0 0 1 .61038 5.16063l-14.5957 21.89355 39.76415 66.27111a3.99978 3.99978 0 0 1 -1.37213 5.48787z" fill="#0c6c71"/><path d="m292.87555 471.87225a3.99978 3.99978 0 0 1 -1.37215-5.48785l39.76419-66.2721-14.52616-21.78918a4.12763 4.12763 0 0 1 -.6963-2.95341 4.00911 4.00911 0 0 1 3.95487-3.36971h20.72119l4.99783-24.97519a3.99978 3.99978 0 0 1 4.70711-3.13714l.00073.00014a3.99978 3.99978 0 0 1 3.13694 4.70686l-5.64144 28.19049a3.99969 3.99969 0 0 1 -3.92193 3.21484h-16.52631l11.854 17.78125a4.00013 4.00013 0 0 1 .10206 4.27637l-41.06726 68.44263a3.99978 3.99978 0 0 1 -5.48737 1.372z" fill="#0c6c71"/></g></svg>