<svg height="512" viewBox="0 0 512 512" width="512" xmlns="http://www.w3.org/2000/svg"><g id="Flat"><path d="m376 184c0 .25 0 .49-.01.74 0 1.82007-.02 3.6-.07007 5.35-2.93993 112.81991-87.91993 82.46005-87.91993 113.91l-120-176c-56 0-56-104 24-104h104c32 0 48 24 48 40 11.71 0 19.14 3.22 23.84009 12 8.15991 15.22 8.15991 47.14 8.15991 108z" fill="#795033"/><path d="m360 472.54v23.46h-208v-23.46c-55.7 1.21-73.08-53.86011-43.22-94.15v-.01a87.55754 87.55754 0 0 1 19.22-18.80993c44.02-31.79 78.16-36.3 90.74-45.93006 3.43-2.61 5.26-5.61 5.26-9.64 0-32-56-32-56-88v-88.00001c3.85-42.37 21.28-64 88-64 85.89 0 89.92993 49.11 88.73 111.27l2.3-2.3a16.97 16.97 0 0 1 28.97 12v3.54a16.96876 16.96876 0 0 1 -10.66992 15.76l-21.32007 8.53c-.01 1.07-.01 2.12988-.01 3.2 0 56-56 56-56 88 0 4.03 1.83008 7.03 5.26 9.64 12.58008 9.63 46.72 14.14 90.74 45.93006a87.37276 87.37276 0 0 1 19.21999 18.81994c29.86008 40.28993 12.48 95.36-43.22 94.15z" fill="#f5a971"/><path d="m341.33008 409.33 18.66992 4.78v81.89h-208v-96l-43.22-21.61v-.01a87.55754 87.55754 0 0 1 19.22-18.80993c24.21-17.49007 45.44-26.72007 61.73-33.08007 13.32-5.22 23.35-8.51 29.01-12.85l37.26 22.36 37.26-22.36c5.65991 4.34 15.68994 7.63 29.01 12.85 16.29 6.36 37.52 15.59 61.73 33.08008a87.37276 87.37276 0 0 1 19.22 18.81992z" fill="#03999c"/><path d="m352 472c-41.23-4.58008-66.72-24.9-96-41.42993-29.28 16.52993-54.77 36.84985-96 41.42993-61.99 6.89-82.47-51.44995-51.22-93.61l28.44 14.22c5.07-8.84 15.01-16.61 30.78-16.61 8.65 0 27.25 2.91992 49.77 7.18994 7.94-2.63989 15.41-4.91994 22.23-7.18994 22.2-7.4 51.24-14.8 61.80005-3.21a10.96891 10.96891 0 0 1 10.04 9.28992c5.3999 1.94006 9.86987 6.11 9.75989 11.9 10.51 2.86 14.4 8.43994 14.4 14.02l5.33008 1.33 61.88998-30.93992c31.25 42.16005 10.77 100.5-51.22 93.61z" fill="#f5a971"/><path d="m376 184c0 .25 0 .49-.01.74a16.96545 16.96545 0 0 0 -28.96-11.77l-3.03 3.03v4c0 16-24 16-24 0s0-36-8-52-32-16-72-16-56 0-72 16v-52l84.30043-28 115.53966 28c8.15991 15.22 8.15991 47.14 8.15991 108z" fill="#795033"/><path d="m240 220h-4a16 16 0 0 1 0-32h4a4 4 0 0 1 0 8h-4a8 8 0 0 0 0 16h4a4 4 0 0 1 0 8z" fill="#e37066"/><g fill="#795033"><circle cx="280" cy="184" r="8"/><circle cx="200" cy="184" r="8"/><path d="m182.81524 161.17384 5.664-5.673a8 8 0 0 1 8.18877-1.938l18.37171 6.11738a4.26906 4.26906 0 0 1 1.67487 1.03661 4.2692 4.2692 0 0 1 -3.02359 7.28317h-28.045a4 4 0 0 1 -2.83076-6.82616z"/><path d="m297.18476 161.17384-5.664-5.673a8 8 0 0 0 -8.18877-1.938l-18.37171 6.11738a4.26906 4.26906 0 0 0 -1.67487 1.03661 4.2692 4.2692 0 0 0 3.02364 7.28317h28.045a4 4 0 0 0 2.83071-6.82616z"/></g><path d="m248 251.95508c-7.03857 0-14.07715-2.37549-18.82861-7.12647a4.00026 4.00026 0 0 1 5.65722-5.65722c6.40039 6.40136 19.94239 6.40136 26.34278 0a4.00026 4.00026 0 1 1 5.65722 5.65722c-4.75146 4.75098-11.79004 7.12647-18.82861 7.12647z" fill="#e37066"/><path d="m256 375.15332a4.0002 4.0002 0 0 1 -4-4v-27.15332a4 4 0 0 1 8 0v27.15332a4.0002 4.0002 0 0 1 -4 4z" fill="#0c6c71"/><path d="m368.97021 412.11963-29.30029-7.3252c-.928-4.46411-4.2019-10.39917-14.35766-13.8872-1.00318-4.95948-4.59351-9.18677-10.0868-11.746a14.67535 14.67535 0 0 0 -7.31091-8.67541 16.21381 16.21381 0 0 0 -4.21265-1.44189c-9.93066-9.29773-30.66064-8.2743-64.96508 3.16064-3.25586 1.084-6.64161 2.16309-10.22608 3.30615-3.86572 1.23242-7.86328 2.50684-12.00439 3.88526-6.35156 2.11523-15.97071 5.44043-26.12989 9.87109a3.99918 3.99918 0 0 0 -2.39746 3.50393c-.09619 2.36621-.87646 14.46972-6.80761 20.40039a48.51323 48.51323 0 0 0 -7.13135 9.44726c-2.73828 4.43067-3.55957 5.38135-6.04004 5.38135-.32764 0-.82275 0-1.11963-1.25781-.85156-3.60645 1.97022-10.69531 10.90869-15.16455a4 4 0 0 0 -3.57812-7.15528c-8.978 4.48926-13.84674 11.43213-15.11774 17.7273-.5932.01636-1.12-.1023-1.32416-.512-1.10449-2.20948.90967-10.61622 12.44971-18.30958a3.9999 3.9999 0 0 0 -4.4375-6.65624c-10.46136 6.974-15.50885 15.39428-16.17651 22.04223a6.10492 6.10492 0 0 1 -1.26538-2.31372c-1.43946-4.75439 1.45068-12.78662 13.87939-21.07227a3.9999 3.9999 0 0 0 -4.4375-6.65624c-4.56329 3.042-18.05914 13.12084-17.8139 25.48657a10.79 10.79 0 0 1 -1.13874-.98706c-2.333-2.33252-2.75293-10.52637 1.86133-18.57129a4 4 0 1 0 -6.93945-3.98047c-5.98194 10.42969-6.231 22.55664-.5791 28.209a14.73664 14.73664 0 0 0 10.03235 4.71546 11.325 11.325 0 0 0 8.79626 4.45595c.25275 0 .49243-.03.74017-.04224a9.31223 9.31223 0 0 0 6.24665 2.20044c.19079 0 .39325-.01855.59-.02807a8.7907 8.7907 0 0 0 8.42318 5.86987c7.17432 0 10.05713-4.66455 12.84521-9.17578a41.13175 41.13175 0 0 1 5.9834-7.99561c6.6128-6.61328 8.45948-17.51123 8.97364-23.186 9.03759-3.82813 17.49609-6.7461 23.23144-8.65625 4.09229-1.36231 8.06494-2.62891 11.90723-3.85352 3.60937-1.15088 7.01855-2.23779 10.32373-3.33789 21.83313-7.27795 37.85168-10.17981 47.89014-8.704-.95191.39246-1.92591.82263-2.94336 1.33142a3.99981 3.99981 0 1 0 3.57714 7.15528c5.03455-2.51685 9.46265-3.38868 12.74634-2.58179a15.67462 15.67462 0 0 0 -9.36352 4.17554 4.00026 4.00026 0 0 0 5.65722 5.65722c2.20069-2.20068 7.16285-2.58886 11.62134-.99878l.02417.00794q.44641.15986.88477.34631a13.40873 13.40873 0 0 1 3.88134 2.4773 88.39987 88.39987 0 0 0 -11.24023-.66139 4 4 0 0 0 0 8 65.69783 65.69783 0 0 1 15.938 1.63306 3.97942 3.97942 0 0 0 1.18042.31836c5.61523 1.62719 8.36694 4.01135 9.69006 6.134-33.30383 1.00586-56.57971 11.59326-76.77722 22.99805a3.99987 3.99987 0 1 0 3.93359 6.96582c20.187-11.39844 43.558-21.94678 77.56177-22.04468l31.50318 7.87573a3.99982 3.99982 0 1 0 1.94042-7.76074z" fill="#e37066"/><path d="m312.00293 92.001a3.99989 3.99989 0 0 1 -3.58057-2.21192c-.06445-.12697-7.15625-13.78908-20.42236-13.78908a4 4 0 0 1 0-8c18.26221 0 27.20605 17.46777 27.57764 18.21094a4.00175 4.00175 0 0 1 -3.57471 5.79z" fill="#a87c50"/><path d="m352 116a4.0002 4.0002 0 0 1 -4-4c0-9.939-4.12207-20-12-20a4 4 0 0 1 0-8c9.63281 0 20 8.76221 20 28a4.0002 4.0002 0 0 1 -4 4z" fill="#a87c50"/><path d="m319.99951 76.001a4.00244 4.00244 0 0 1 -3.79443-2.73584c-1.98633-5.91164-9.49219-21.26516-20.20508-21.26516a4 4 0 0 1 0-8c18.66846 0 27.43066 25.64355 27.79492 26.73486a4.00224 4.00224 0 0 1 -3.79541 5.26612z" fill="#a87c50"/><path d="m315.95142 95.93262a3.9995 3.9995 0 0 0 3.93237 4.06543c11.77246 0 12.11621 10.37695 12.11621 20.00195v.00269a4 4 0 0 0 8 .00878v-.01147c0-3.10417 1.8125-28-20-28a3.98512 3.98512 0 0 0 -4.04858 3.93262z" fill="#a87c50"/><path d="m322.27 326.49-50.27 33.51-16-16-16 16-50.27-33.51c13.32-5.22 23.35-8.51 29.01-12.85l37.26 22.36 37.26-22.36c5.65992 4.34 15.69 7.63 29.01 12.85z" fill="#0c6c71"/></g></svg>